<?xml version="1.0" encoding="UTF-8"?>
<svg version="1.1" xmlns="http://www.w3.org/2000/svg" width="512" height="512">
<path d="M0 0 C74.2448408 0 74.2448408 0 91.75 16.3125 C102.20887383 27.36199258 106.13078769 41.05750598 106 56 C104.87752065 70.15125756 97.56088302 82.31967097 87.125 91.625 C84 94 84 94 82 94 C82.30067383 94.89154785 82.60134766 95.7830957 82.91113281 96.70166016 C89.00649961 114.79564646 94.98932755 132.9214328 100.75 151.125 C101.01574829 151.96154114 101.28149658 152.79808228 101.55529785 153.65997314 C102.30579702 156.02489108 103.05213524 158.39107542 103.796875 160.7578125 C104.02129272 161.46450073 104.24571045 162.17118896 104.47692871 162.89929199 C106 167.76929193 106 167.76929193 106 170 C95.11 170 84.22 170 73 170 C67.75911558 153.85843251 67.75911558 153.85843251 65.53515625 146.9921875 C64.01584727 142.30153393 62.49589348 137.61109605 60.97216797 132.921875 C59.74416687 129.14260214 58.51900155 125.36242099 57.29582214 121.58158493 C56.82795223 120.13712009 56.35905019 118.69298915 55.88911438 117.2491951 C55.2326101 115.2316122 54.57973943 113.21288823 53.92773438 111.19384766 C53.55467163 110.04357086 53.18160889 108.89329407 52.79724121 107.7081604 C52 105 52 105 52 103 C45.07 103 38.14 103 31 103 C31 124.78 31 146.56 31 169 C20.77 169 10.54 169 0 169 C0 113.23 0 57.46 0 0 Z M31 31 C31 44.53 31 58.06 31 72 C35.125 72.061875 39.25 72.12375 43.5 72.1875 C45.42682617 72.22846802 45.42682617 72.22846802 47.39257812 72.27026367 C54.97675731 72.32512744 60.83093174 71.91465834 67.20703125 67.45703125 C72.43355661 62.10333982 75 57.57776088 75 50 C73.72532194 43.0977539 69.72885408 38.03640369 64.13671875 34.0078125 C56.94793277 30.61712368 49.7812801 30.74938791 42 30.875 C38.37 30.91625 34.74 30.9575 31 31 Z " fill="#FEFEFE" transform="translate(337,171)"/>
<path d="M0 0 C9.04341201 9.37981902 13.35465139 22.47132726 13.30981445 35.31738281 C13.31492538 36.08931473 13.32003632 36.86124664 13.32530212 37.65657043 C13.33909662 40.18519041 13.33824859 42.71353458 13.3359375 45.2421875 C13.33983093 47.01804707 13.34416692 48.79390572 13.34892273 50.56976318 C13.35636387 54.28498355 13.35610967 58.00010885 13.35083008 61.71533203 C13.34504831 66.44694653 13.36194541 71.17816794 13.38517475 75.90971756 C13.40000007 79.57660144 13.40077173 83.24339266 13.39766502 86.91030121 C13.39817416 88.65319342 13.40333415 90.39609139 13.41347694 92.13895416 C13.50744773 110.54786895 10.48514719 125.13911378 -2.6171875 138.94140625 C-14.11956464 149.83134401 -27.75317079 152.68219685 -43.0546875 152.4375 C-56.74284068 151.90648273 -68.80325531 145.34471697 -78.1171875 135.45703125 C-90.26103152 120.3863411 -91.12286687 104.81610638 -91.1328125 86.2421875 C-91.13603601 84.81028207 -91.13940085 83.37837695 -91.14289856 81.94647217 C-91.14885146 78.95779661 -91.15074246 75.96914981 -91.15014648 72.98046875 C-91.15004513 69.19082633 -91.16368714 65.40137237 -91.18091869 61.61177444 C-91.19215406 58.65683176 -91.19406219 55.70193297 -91.19353676 52.74697113 C-91.19469998 51.35182802 -91.19902582 49.95668313 -91.20686913 48.56156158 C-91.29543962 31.1805822 -89.85843354 14.70402033 -77.96484375 1.1640625 C-77.13919922 0.16439453 -77.13919922 0.16439453 -76.296875 -0.85546875 C-67.99825306 -10.10958235 -55.03752929 -15.66349719 -42.73828125 -16.796875 C-25.60344051 -17.03821079 -12.51541314 -11.69432242 0 0 Z M-54.52734375 21.55859375 C-59.73965741 27.37995493 -60.0850113 34.30404594 -60.11010742 41.77685547 C-60.11648727 43.07195038 -60.12286713 44.36704529 -60.12944031 45.7013855 C-60.13096927 47.10300662 -60.13208308 48.50462824 -60.1328125 49.90625 C-60.13603006 51.35824618 -60.1393945 52.81024204 -60.14289856 54.26223755 C-60.14887127 57.29999543 -60.15074036 60.33772494 -60.15014648 63.37548828 C-60.15004493 67.25103122 -60.16369803 71.12639067 -60.18091869 75.00189018 C-60.19208497 77.99948956 -60.19406428 80.9970452 -60.19353676 83.99466324 C-60.19470987 85.42267616 -60.19909372 86.85069047 -60.20686913 88.27868271 C-60.37080786 102.64524475 -60.37080786 102.64524475 -53.96484375 115.1640625 C-48.24239872 120.44631946 -43.22922243 121.57754244 -35.6171875 121.4140625 C-29.55718089 120.84286895 -25.7877157 117.6911477 -21.96484375 113.1640625 C-16.7747395 105.47175771 -17.38129474 97.43549585 -17.43359375 88.51171875 C-17.43089462 86.88561268 -17.42700871 85.25950818 -17.42199707 83.63340759 C-17.41612006 80.23502142 -17.42460528 76.83705754 -17.44335938 73.4387207 C-17.46613001 69.10345549 -17.453027 64.76918205 -17.42906952 60.43395329 C-17.41454692 57.07853355 -17.41924722 53.72334509 -17.42958069 50.36791801 C-17.43223113 48.77048052 -17.42903806 47.17302138 -17.41966248 45.57560921 C-17.37648546 36.15182955 -17.37481048 27.60595784 -23.75390625 20.04296875 C-34.27402126 12.49982246 -44.94443826 12.57461985 -54.52734375 21.55859375 Z " fill="#FEFEFE" transform="translate(160.96484375,187.8359375)"/>
<path d="M0 0 C10.36532355 10.83558398 13.87890625 22.24651391 13.87890625 36.97265625 C3.64890625 36.97265625 -6.58109375 36.97265625 -17.12109375 36.97265625 C-18.11109375 32.51765625 -18.11109375 32.51765625 -19.12109375 27.97265625 C-21.84318965 22.67604796 -25.40880581 18.91483415 -31.12109375 16.97265625 C-38.18274313 15.35194984 -43.65861894 16.31457343 -49.91796875 20.04296875 C-53.81523104 22.95626878 -55.70516424 26.42943465 -57.12109375 30.97265625 C-57.5757037 34.68846057 -57.5757037 34.68846057 -57.52514648 38.61694336 C-57.53544136 39.71110817 -57.53544136 39.71110817 -57.54594421 40.82737732 C-57.56411942 43.21845431 -57.56038825 45.60886932 -57.5546875 48 C-57.55925378 49.67477123 -57.56456068 51.34954059 -57.5705719 53.02430725 C-57.57948478 56.52694329 -57.57710078 60.0293511 -57.56713867 63.53198242 C-57.55565138 68.00521336 -57.57586567 72.47765457 -57.60505581 76.95078182 C-57.6234629 80.40736334 -57.62311641 83.86375718 -57.61741829 87.32037544 C-57.61726562 88.96888906 -57.62326436 90.61741585 -57.63570976 92.26588249 C-57.84675098 104.21530091 -57.84675098 104.21530091 -53.12109375 114.97265625 C-51.42799561 116.82778439 -51.42799561 116.82778439 -49.55859375 117.91015625 C-48.97980469 118.29042969 -48.40101563 118.67070312 -47.8046875 119.0625 C-42.41480816 121.97628628 -35.61413926 121.94718659 -29.796875 120.32421875 C-24.5382356 117.98036805 -21.90834109 114.97330588 -19.12109375 109.97265625 C-18.46109375 107.00265625 -17.80109375 104.03265625 -17.12109375 100.97265625 C-6.89109375 100.97265625 3.33890625 100.97265625 13.87890625 100.97265625 C13.87890625 116.40663761 8.91561358 128.42415869 -1.61328125 139.61328125 C-12.56208295 149.91402304 -25.3463843 153.6180912 -40.09375 153.44335938 C-53.56414309 152.93524663 -64.97777573 147.89046428 -74.87109375 138.72265625 C-87.68523143 124.89445012 -89.74688635 109.79546946 -89.65234375 91.78515625 C-89.65504602 89.95157669 -89.65893452 88.11799854 -89.66394043 86.28442383 C-89.66980095 82.46193654 -89.66138479 78.63982592 -89.64257812 74.81738281 C-89.61979064 69.95245874 -89.6329324 65.08841779 -89.65686798 60.223526 C-89.67141987 56.44333411 -89.66667728 52.66334672 -89.65635681 48.88314819 C-89.65371538 47.09084973 -89.65686673 45.29853182 -89.66627502 43.5062561 C-89.73765146 26.09389816 -86.63119998 11.93461643 -74.43359375 -1.27734375 C-67.04722991 -8.23509847 -58.02455401 -12.92761177 -48.12109375 -15.02734375 C-47.44175781 -15.18074219 -46.76242188 -15.33414063 -46.0625 -15.4921875 C-28.85864081 -18.38659859 -12.28255522 -11.73967985 0 0 Z " fill="#FEFEFE" transform="translate(293.12109375,187.02734375)"/>
<path d="M0 0 C9.9 0 19.8 0 30 0 C30 47.85 30 95.7 30 145 C-17.85 145 -65.7 145 -115 145 C-115 135.1 -115 125.2 -115 115 C-77.05 115 -39.1 115 0 115 C0 77.05 0 39.1 0 0 Z " fill="#FEFEFE" transform="translate(482,367)"/>
<path d="M0 0 C9.9 0 19.8 0 30 0 C30 37.95 30 75.9 30 115 C67.95 115 105.9 115 145 115 C145 124.9 145 134.8 145 145 C97.15 145 49.3 145 0 145 C0 97.15 0 49.3 0 0 Z " fill="#FEFEFE" transform="translate(0,367)"/>
<path d="M0 0 C47.85 0 95.7 0 145 0 C145 47.85 145 95.7 145 145 C135.1 145 125.2 145 115 145 C115 107.05 115 69.1 115 30 C77.05 30 39.1 30 0 30 C0 20.1 0 10.2 0 0 Z " fill="#FEFEFE" transform="translate(367,0)"/>
<path d="M0 0 C47.85 0 95.7 0 145 0 C145 9.9 145 19.8 145 30 C107.05 30 69.1 30 30 30 C30 67.95 30 105.9 30 145 C20.1 145 10.2 145 0 145 C0 97.15 0 49.3 0 0 Z " fill="#FEFEFE" transform="translate(0,0)"/>
</svg>
